<?xml version="1.0" standalone="no"?>
<!DOCTYPE svg PUBLIC "-//W3C//DTD SVG 20010904//EN"
 "http://www.w3.org/TR/2001/REC-SVG-20010904/DTD/svg10.dtd">
<svg version="1.0" xmlns="http://www.w3.org/2000/svg"
 width="1024.000000pt" height="1024.000000pt" viewBox="0 0 1024.000000 1024.000000"
 preserveAspectRatio="xMidYMid meet">
<metadata>
Created by potrace 1.14, written by Peter Selinger 2001-2017
</metadata>
<g transform="translate(0.000000,1024.000000) scale(0.100000,-0.100000)"
fill="#000000" stroke="none">
<path d="M4956 9672 c-2 -2 -57 -5 -123 -7 -65 -2 -129 -6 -143 -9 -14 -3 -50
-8 -80 -11 -53 -5 -118 -12 -170 -20 -14 -2 -43 -6 -65 -10 -22 -3 -48 -8 -58
-11 -10 -3 -31 -7 -47 -9 -16 -2 -46 -9 -67 -14 -21 -6 -54 -13 -73 -15 -19
-3 -54 -12 -78 -20 -23 -8 -46 -15 -50 -16 -7 0 -170 -48 -252 -74 -64 -21
-130 -45 -165 -60 -16 -8 -73 -31 -125 -51 -52 -21 -131 -56 -175 -78 -44 -22
-107 -53 -140 -69 -33 -15 -67 -33 -75 -38 -8 -6 -33 -20 -55 -31 -22 -11 -78
-43 -125 -72 -47 -28 -99 -59 -115 -67 -16 -8 -58 -36 -94 -62 -36 -26 -106
-75 -155 -110 -49 -35 -110 -81 -135 -104 -25 -23 -65 -53 -88 -68 -24 -14
-128 -112 -233 -217 -187 -188 -299 -313 -353 -396 -27 -43 -46 -55 -48 -30 0
6 -2 26 -5 42 -2 17 -6 44 -9 60 -6 48 -44 227 -55 260 -5 17 -12 46 -15 65
-3 19 -15 73 -26 120 -12 47 -22 94 -24 105 -1 11 -15 69 -29 129 -14 59 -29
122 -31 139 -3 17 -8 33 -10 37 -2 3 -6 28 -10 54 -3 27 -7 51 -9 55 -3 4 -7
27 -10 51 -15 107 -39 159 -69 147 -19 -7 -70 -109 -102 -202 -18 -52 -29
-108 -32 -160 -2 -44 -5 -102 -6 -130 -3 -51 7 -176 19 -230 6 -29 8 -62 19
-305 3 -63 7 -158 10 -210 3 -52 7 -198 8 -325 2 -227 2 -231 -25 -315 -16
-47 -32 -94 -37 -105 -29 -60 -71 -165 -71 -174 0 -6 -4 -11 -9 -11 -10 0
-171 172 -224 240 -20 25 -49 61 -65 80 -16 19 -37 52 -46 73 -9 22 -27 52
-40 68 -14 16 -28 39 -31 50 -4 12 -20 44 -36 71 -16 27 -29 54 -29 61 0 7
-14 41 -30 76 -43 91 -159 449 -176 546 -3 17 -10 48 -16 70 -5 22 -12 51 -14
65 -2 14 -6 36 -9 50 -5 22 -8 45 -19 115 -2 11 -6 38 -10 60 -25 156 -33 317
-22 455 3 36 8 94 10 130 2 36 7 81 11 100 10 54 14 111 8 126 -3 8 -13 14
-23 14 -31 0 -70 -40 -99 -103 -32 -70 -117 -324 -126 -377 -3 -19 -12 -63
-20 -96 -27 -108 -38 -384 -21 -499 4 -27 7 -57 8 -65 0 -8 9 -58 20 -110 11
-52 22 -105 24 -117 4 -23 68 -230 84 -273 91 -245 168 -406 278 -580 23 -36
55 -87 72 -115 17 -27 57 -84 88 -126 31 -42 77 -103 101 -135 25 -32 73 -90
108 -129 35 -38 63 -76 63 -85 0 -8 -9 -32 -20 -53 -38 -70 -180 -524 -195
-622 -2 -11 -11 -54 -20 -95 -9 -41 -17 -86 -19 -100 -2 -14 -8 -43 -15 -66
-6 -23 -13 -68 -16 -100 -3 -32 -8 -72 -10 -89 -6 -35 -14 -110 -21 -180 -21
-221 -21 -695 0 -850 14 -107 18 -135 21 -178 2 -26 6 -51 9 -55 3 -5 8 -31
11 -59 3 -27 8 -60 10 -74 3 -13 8 -37 11 -54 3 -16 10 -50 15 -75 6 -25 12
-58 14 -73 17 -127 176 -625 251 -784 13 -29 36 -79 50 -110 104 -225 217
-435 299 -556 22 -32 47 -71 55 -86 23 -44 205 -290 259 -351 17 -19 71 -82
120 -140 157 -186 441 -457 616 -588 44 -33 94 -72 112 -86 40 -34 283 -196
303 -204 8 -3 29 -15 45 -27 52 -38 423 -230 550 -285 51 -22 341 -129 405
-149 192 -60 284 -86 292 -81 2 1 16 -4 33 -10 16 -6 48 -14 70 -16 22 -3 66
-12 98 -20 31 -8 76 -16 100 -18 40 -4 71 -8 142 -22 175 -32 746 -50 945 -30
41 4 102 9 135 11 33 2 78 6 100 10 22 3 56 8 75 11 68 9 105 15 120 19 8 2
33 6 55 9 37 5 52 7 115 21 14 3 34 7 45 9 168 35 648 185 733 230 15 8 124
62 242 121 118 58 233 116 255 129 97 54 142 81 168 103 16 13 33 23 38 23 13
0 150 93 263 180 54 41 109 82 122 91 32 21 203 171 235 206 14 15 60 60 103
98 75 68 331 347 364 398 29 42 101 135 121 154 10 10 30 36 44 58 15 22 68
104 119 182 114 173 155 241 189 314 15 31 32 59 37 63 6 3 16 23 22 44 7 20
31 78 55 127 63 133 89 192 118 270 15 39 42 112 62 162 19 51 35 97 35 102 0
6 6 25 14 43 15 35 71 224 80 273 4 17 9 44 12 60 2 17 7 38 10 47 3 9 7 27 9
40 3 13 11 57 20 98 8 41 16 86 19 100 2 14 7 36 10 50 4 14 8 45 11 70 2 25
7 70 11 100 20 172 26 290 26 510 0 204 -6 367 -17 460 -4 30 -8 71 -10 90 -4
46 -13 112 -26 185 -6 33 -12 71 -14 85 -3 20 -45 221 -60 280 -23 98 -52 200
-90 311 -64 190 -73 216 -101 274 -13 29 -24 57 -24 63 0 6 37 49 81 96 45 47
91 100 102 118 11 18 31 47 46 65 41 49 191 267 191 277 0 1 20 34 45 72 25
37 45 72 45 76 0 5 16 32 35 61 19 28 35 55 35 60 0 4 28 72 61 150 97 224
187 512 205 652 14 118 18 174 18 280 0 66 -3 140 -8 165 -4 25 -9 67 -12 94
-2 26 -11 74 -19 105 -8 31 -16 70 -19 86 -14 75 -89 302 -124 370 -34 68 -62
104 -76 99 -32 -12 -38 -88 -21 -234 3 -25 8 -67 11 -95 7 -65 8 -284 0 -355
-5 -50 -10 -89 -21 -160 -2 -14 -6 -43 -10 -65 -3 -22 -8 -51 -11 -65 -3 -13
-8 -40 -10 -60 -3 -19 -7 -46 -9 -60 -4 -32 -49 -199 -70 -265 -9 -27 -18 -63
-21 -78 -3 -16 -21 -71 -40 -123 -18 -52 -32 -94 -29 -94 2 0 -14 -37 -35 -82
-21 -46 -42 -96 -46 -113 -3 -16 -17 -43 -29 -60 -12 -16 -32 -50 -45 -75 -12
-24 -39 -67 -59 -95 -21 -27 -43 -63 -49 -80 -7 -16 -42 -61 -78 -100 -36 -38
-90 -100 -121 -137 -30 -38 -58 -68 -62 -68 -13 1 -149 298 -156 341 -10 61
-3 561 10 719 3 30 7 96 10 145 2 50 7 126 9 170 2 44 10 105 16 135 7 30 13
62 14 70 2 8 6 35 11 60 5 25 8 49 7 53 -1 4 -5 27 -8 50 -2 23 -7 57 -9 76
-3 19 -23 90 -45 157 -34 102 -47 128 -76 154 -43 37 -62 38 -70 3 -3 -16 -10
-44 -15 -63 -4 -19 -11 -51 -14 -70 -3 -19 -10 -53 -15 -75 -17 -74 -81 -362
-85 -385 -2 -12 -14 -61 -25 -109 -11 -47 -28 -115 -36 -151 -9 -36 -18 -76
-20 -90 -6 -32 -13 -68 -20 -100 -3 -14 -7 -60 -8 -103 -2 -43 -6 -80 -9 -83
-9 -10 -43 14 -62 43 -30 46 -110 133 -305 331 -191 194 -305 300 -375 346
-41 27 -106 76 -162 121 -48 39 -336 225 -348 225 -5 0 -16 6 -24 14 -23 20
-439 236 -455 236 -4 0 -25 9 -49 20 -62 28 -308 120 -337 125 -14 2 -51 13
-82 24 -78 27 -246 73 -283 77 -16 2 -44 9 -61 14 -17 6 -46 12 -63 15 -18 2
-44 6 -59 9 -54 11 -88 17 -137 22 -89 10 -100 12 -130 18 -29 5 -88 10 -255
22 -88 7 -499 12 -504 6z m459 -446 c50 -2 110 -7 135 -10 25 -3 65 -8 90 -11
97 -10 251 -34 262 -41 4 -3 26 -7 50 -10 125 -16 576 -151 762 -229 108 -45
342 -160 411 -203 28 -17 82 -49 120 -72 203 -119 356 -231 539 -394 102 -91
310 -301 344 -346 14 -19 46 -57 69 -85 178 -207 255 -309 289 -380 42 -89
112 -315 118 -380 3 -27 7 -61 11 -75 3 -14 7 -84 9 -157 3 -156 -12 -219 -68
-284 -20 -24 -36 -48 -36 -54 0 -20 -75 -83 -107 -90 -25 -5 -32 -3 -29 7 3 7
7 37 11 67 3 29 7 57 10 61 2 4 7 43 10 86 7 98 7 89 0 149 -3 28 -7 70 -9 95
-1 25 -6 55 -10 68 -4 12 -9 53 -11 90 -4 79 -9 104 -35 193 -11 37 -22 83
-24 103 -11 82 -105 323 -131 332 -18 7 -44 -12 -55 -42 -16 -41 -31 -167 -36
-304 -3 -85 -6 -131 -19 -290 -2 -25 -6 -58 -9 -75 -4 -16 -8 -55 -11 -85 -2
-30 -16 -100 -30 -155 -15 -55 -28 -113 -30 -128 -2 -16 -8 -34 -13 -40 -5 -7
-17 -39 -27 -72 -24 -80 -67 -166 -108 -218 -18 -23 -41 -54 -50 -70 -24 -37
-158 -146 -210 -170 -91 -41 -174 -69 -388 -127 -123 -34 -277 -78 -342 -100
l-118 -38 43 76 c67 122 84 161 112 262 39 141 45 185 46 305 1 107 -10 234
-25 315 -4 19 -8 44 -10 55 -11 76 -56 244 -80 301 -16 39 -48 60 -62 41 -11
-14 -31 -84 -31 -107 0 -8 -2 -28 -5 -45 -3 -16 -8 -47 -11 -67 -3 -21 -10
-57 -15 -80 -5 -24 -12 -65 -15 -91 -3 -27 -8 -52 -11 -57 -3 -5 -7 -33 -9
-62 -2 -29 -9 -72 -15 -96 -7 -24 -14 -55 -16 -70 -13 -98 -72 -267 -146 -418
-82 -168 -158 -264 -357 -447 -157 -145 -332 -336 -402 -439 -44 -65 -46 -66
-120 -88 -41 -13 -91 -27 -110 -33 -19 -6 -42 -12 -50 -13 -8 -1 -62 -12 -120
-24 -155 -32 -318 -29 -445 10 -16 5 -48 12 -70 15 -75 11 -160 37 -201 60
-43 25 -68 52 -134 145 -75 104 -304 341 -406 420 -33 26 -185 193 -194 213
-3 7 -17 31 -33 54 -89 137 -203 428 -212 538 -4 49 -9 84 -21 135 -3 14 -7
32 -9 40 -1 8 -6 33 -10 55 -9 43 -9 46 -20 120 -14 99 -16 121 -19 180 -3 70
-26 129 -55 144 -19 10 -23 6 -49 -46 -33 -66 -73 -192 -78 -243 -1 -19 -11
-72 -22 -116 -16 -68 -19 -113 -16 -265 1 -101 4 -196 7 -210 17 -107 48 -195
108 -316 38 -76 67 -138 66 -140 -2 -1 -48 12 -102 29 -55 17 -120 36 -145 43
-25 7 -101 29 -170 48 -69 20 -168 47 -220 61 -94 24 -204 69 -215 87 -4 5
-23 18 -44 28 -20 11 -73 55 -117 100 -70 70 -89 96 -142 203 -61 123 -104
249 -116 342 -4 27 -9 52 -11 56 -2 4 -7 29 -10 56 -4 27 -8 56 -10 64 -12 42
-20 119 -29 270 -2 36 -7 94 -11 130 -3 36 -8 110 -11 165 -4 92 -8 158 -12
186 -9 55 -147 -131 -177 -239 -63 -225 -71 -259 -81 -352 -2 -19 -6 -53 -9
-75 -11 -92 -18 -206 -18 -290 1 -98 10 -221 17 -233 3 -5 1 -14 -4 -21 -6
-11 -16 -9 -46 10 -73 45 -140 146 -166 250 -13 53 -15 195 -5 314 11 122 113
446 163 515 16 22 39 54 52 72 36 53 84 109 120 142 17 16 32 33 32 36 0 7 6
14 153 180 96 110 264 280 275 280 4 0 43 34 87 75 44 41 83 75 87 75 7 0 40
28 111 93 16 15 33 27 38 27 4 0 29 17 56 38 26 20 64 45 83 55 19 9 53 31 75
47 22 16 68 43 102 60 34 17 65 35 68 40 4 6 45 28 93 50 48 23 94 45 102 51
8 5 35 19 60 30 25 11 68 31 95 44 76 36 173 75 187 75 6 0 30 9 52 20 47 22
191 71 221 74 12 2 41 10 65 18 45 16 192 58 220 63 37 6 87 15 110 20 13 3
42 7 64 11 22 3 44 8 48 10 7 4 109 16 138 16 8 0 35 5 60 10 25 5 89 11 143
12 53 2 99 5 101 7 5 5 357 2 481 -5z m-4004 -2948 c121 -117 339 -294 509
-413 39 -27 97 -71 129 -97 32 -26 76 -58 99 -70 22 -13 95 -60 162 -105 66
-46 123 -83 126 -83 2 0 17 -8 32 -19 71 -49 131 -84 215 -124 174 -84 223
-106 248 -111 13 -2 73 -21 132 -41 60 -20 136 -42 170 -50 271 -58 523 -162
661 -273 181 -146 274 -227 270 -233 -8 -14 -105 16 -229 72 -71 32 -173 74
-225 95 -106 41 -423 144 -457 149 -12 2 -64 17 -115 34 -51 17 -122 39 -158
50 -36 10 -93 30 -128 44 -54 22 -64 24 -77 11 -13 -14 -14 -33 -1 -124 7 -53
71 -265 86 -285 4 -5 10 -23 14 -40 7 -27 37 -86 114 -217 36 -62 96 -134 126
-150 14 -7 59 -37 100 -65 41 -29 77 -53 80 -53 3 0 25 -13 49 -30 25 -16 48
-30 51 -30 4 0 24 -11 46 -25 39 -25 105 -58 400 -205 91 -45 166 -83 168 -85
1 -1 5 -27 7 -58 3 -31 9 -76 15 -101 5 -24 12 -68 15 -96 3 -29 8 -56 11 -61
3 -5 7 -32 9 -61 4 -71 36 -138 137 -293 46 -71 94 -146 106 -165 21 -36 71
-117 107 -174 92 -149 306 -511 363 -616 86 -159 118 -200 144 -184 6 4 77 8
157 9 80 2 166 6 191 10 25 4 66 8 92 9 45 2 88 26 88 49 0 5 16 35 37 66 20
31 61 94 91 141 30 47 69 108 87 135 50 77 158 252 176 284 16 29 55 92 124
201 23 36 54 86 71 113 16 26 62 98 103 160 88 134 107 175 116 247 4 30 9 66
11 80 2 14 6 54 9 90 2 36 9 80 15 99 5 19 7 37 5 41 -2 4 0 23 6 43 8 30 19
41 67 65 31 15 100 50 152 76 52 27 149 75 215 108 66 33 139 73 163 89 24 16
46 29 51 29 4 0 41 23 81 51 40 27 86 57 102 65 16 8 63 49 106 92 60 59 87
95 115 154 20 42 37 80 37 85 0 4 11 28 24 53 35 67 93 229 101 280 3 25 9 54
12 64 12 41 10 128 -3 141 -15 14 -32 9 -179 -53 -27 -12 -90 -33 -140 -47
-240 -69 -279 -81 -490 -151 -105 -35 -298 -112 -339 -135 -34 -20 -238 -90
-244 -84 -19 19 371 335 413 335 7 0 23 9 37 20 31 24 113 57 198 80 464 125
652 185 788 254 112 57 185 98 249 139 37 24 106 68 153 98 46 30 105 69 130
86 25 18 77 54 115 80 39 26 106 75 150 108 44 33 91 68 105 78 23 16 81 62
221 176 30 24 92 78 139 121 164 149 160 147 176 126 13 -19 58 -147 67 -196
3 -14 24 -96 46 -182 22 -86 43 -181 46 -210 3 -29 8 -60 10 -68 3 -8 7 -33
10 -55 2 -22 7 -60 10 -84 3 -24 8 -48 11 -53 4 -5 8 -37 10 -71 2 -34 6 -87
9 -117 13 -138 6 -687 -10 -779 -3 -18 -8 -55 -10 -83 -2 -27 -7 -53 -10 -58
-3 -5 -8 -31 -10 -57 -8 -85 -43 -261 -67 -333 -6 -19 -12 -44 -14 -55 -3 -26
-21 -97 -43 -165 -10 -30 -28 -86 -40 -125 -13 -38 -29 -83 -37 -100 -7 -16
-37 -86 -65 -155 -53 -132 -187 -397 -233 -465 -16 -22 -41 -65 -56 -96 -16
-31 -39 -69 -52 -85 -26 -32 -70 -95 -108 -153 -35 -55 -141 -194 -158 -208
-7 -6 -25 -26 -38 -45 -105 -142 -423 -455 -618 -608 -204 -160 -470 -329
-691 -438 -251 -124 -296 -139 -309 -106 -4 11 -62 161 -127 334 -66 173 -135
353 -154 400 -18 47 -45 117 -59 155 -15 39 -36 90 -46 115 -36 84 -88 225
-105 285 -10 33 -24 67 -31 76 -8 8 -14 19 -14 23 0 3 -7 22 -15 42 -14 34
-15 35 -42 20 -58 -31 -163 -161 -201 -248 -6 -16 -16 -28 -21 -28 -11 0 -81
-95 -81 -110 0 -5 -15 -27 -33 -47 -18 -21 -51 -65 -72 -97 -22 -33 -51 -71
-64 -85 -12 -14 -30 -39 -38 -56 -9 -16 -35 -58 -59 -93 -24 -35 -44 -68 -44
-74 0 -10 -30 -9 -145 9 -48 8 -93 7 -205 0 -80 -6 -113 -10 -168 -22 -15 -4
-30 2 -45 18 -40 42 -111 140 -169 232 -31 49 -68 104 -82 122 -15 17 -41 56
-59 85 -18 30 -43 68 -55 84 -25 31 -131 192 -172 261 -35 57 -87 100 -108 87
-8 -6 -30 -48 -47 -95 -49 -129 -135 -339 -158 -384 -11 -22 -21 -49 -23 -60
-3 -20 -60 -171 -133 -350 -22 -55 -41 -107 -41 -115 0 -9 -4 -20 -9 -25 -5
-6 -14 -28 -21 -50 -7 -22 -18 -49 -25 -60 -7 -11 -36 -85 -65 -165 -75 -207
-66 -193 -119 -186 -24 3 -105 36 -180 72 -75 36 -153 72 -175 80 -21 8 -54
27 -72 44 -19 16 -39 30 -44 30 -10 0 -95 48 -144 80 -13 8 -50 32 -82 54 -32
21 -68 46 -79 56 -11 9 -40 28 -64 41 -24 13 -63 42 -86 64 -24 22 -63 56 -88
75 -25 19 -76 63 -114 97 -37 35 -71 63 -74 63 -12 0 -268 272 -376 400 -40
47 -101 126 -138 175 -68 93 -255 371 -255 379 0 2 -18 33 -39 67 -41 67 -61
106 -156 304 -71 149 -101 226 -171 435 -64 193 -74 233 -109 400 -26 127 -31
154 -40 225 -3 22 -10 65 -15 95 -26 155 -31 256 -31 585 0 221 4 328 15 420
3 28 8 70 11 94 3 24 7 47 9 50 3 5 11 52 21 131 1 8 5 33 8 55 4 22 9 59 12
83 3 23 13 61 21 84 8 23 12 43 10 45 -3 3 2 22 9 43 7 21 16 55 19 75 4 21 9
41 12 46 3 5 7 22 10 37 3 15 16 62 30 105 19 55 30 77 43 77 9 0 59 -42 112
-92z"/>
</g>
</svg>
