<?xml version="1.0" standalone="no"?>
<!DOCTYPE svg PUBLIC "-//W3C//DTD SVG 20010904//EN"
 "http://www.w3.org/TR/2001/REC-SVG-20010904/DTD/svg10.dtd">
<svg version="1.0" xmlns="http://www.w3.org/2000/svg"
 width="1024.000000pt" height="1024.000000pt" viewBox="0 0 1024.000000 1024.000000"
 preserveAspectRatio="xMidYMid meet">
<metadata>
Created by potrace 1.14, written by Peter Selinger 2001-2017
</metadata>
<g transform="translate(0.000000,1024.000000) scale(0.100000,-0.100000)"
fill="#000000" stroke="none">
<path d="M5065 9659 c-93 -4 -204 -8 -245 -9 -41 -2 -82 -6 -91 -11 -8 -4 -21
-4 -29 1 -7 4 -20 4 -29 0 -9 -5 -68 -14 -131 -21 -63 -7 -126 -13 -140 -15
-14 -1 -68 -12 -120 -24 -52 -12 -111 -24 -130 -27 -19 -3 -107 -27 -195 -53
-88 -26 -172 -50 -187 -54 -15 -3 -40 -11 -55 -18 -15 -6 -30 -12 -33 -13 -21
-7 -50 -19 -78 -31 -55 -24 -186 -73 -197 -74 -5 -1 -17 -8 -27 -16 -9 -9 -22
-17 -30 -18 -20 -3 -208 -97 -214 -107 -3 -5 -16 -9 -30 -9 -14 0 -27 -6 -30
-14 -3 -8 -20 -20 -37 -27 -77 -31 -429 -254 -503 -318 -13 -11 -31 -21 -38
-21 -8 0 -18 -9 -21 -20 -4 -11 -10 -18 -14 -15 -9 5 -99 -69 -114 -92 -4 -7
-14 -13 -20 -13 -7 0 -39 -25 -71 -56 -33 -30 -69 -62 -82 -71 -13 -8 -24 -22
-24 -29 0 -8 -4 -13 -9 -12 -10 3 -178 -168 -328 -335 -18 -20 -33 -41 -33
-46 0 -5 -7 -11 -15 -15 -8 -3 -15 -12 -15 -19 0 -16 -77 -104 -83 -97 -12 13
-32 151 -25 165 6 9 5 15 -1 15 -5 0 -15 26 -21 58 -6 31 -19 93 -30 137 -10
44 -30 132 -44 195 -44 200 -60 265 -66 270 -3 3 -6 16 -6 30 -1 14 -7 50 -14
80 -6 30 -14 64 -16 75 -2 11 -10 58 -19 105 -17 96 -37 170 -45 170 -7 0 -45
-63 -43 -70 1 -3 -4 -12 -11 -20 -30 -35 -68 -176 -76 -280 -4 -58 -6 -113 -5
-122 2 -10 0 -20 -5 -23 -4 -3 -3 -21 3 -41 8 -28 8 -37 -2 -43 -8 -5 -9 -11
-3 -15 13 -8 31 -138 37 -266 2 -58 5 -105 5 -105 1 0 2 -17 3 -38 1 -20 -1
-37 -5 -37 -4 0 -3 -12 3 -27 14 -37 24 -753 11 -753 -5 0 -13 -12 -17 -27 -6
-25 -26 -80 -66 -178 -7 -16 -13 -32 -14 -35 -1 -3 -9 -22 -18 -42 -10 -21
-17 -42 -17 -48 0 -18 -39 -1 -68 31 -15 16 -58 63 -97 105 -38 42 -83 90
-100 107 -16 17 -30 36 -30 43 0 6 -14 26 -32 44 -18 18 -30 36 -28 40 3 4 -2
13 -10 20 -8 7 -15 19 -15 28 0 9 -9 25 -19 36 -21 23 -111 188 -111 204 0 6
-16 45 -36 87 -20 42 -38 87 -40 98 -2 12 -26 90 -54 172 -28 83 -51 161 -52
175 -1 14 -5 30 -8 35 -4 6 -10 26 -13 45 -3 19 -15 79 -27 133 -11 55 -18
103 -15 107 3 5 -1 15 -9 23 -8 8 -13 17 -10 20 4 3 1 36 -5 74 -10 63 -18
120 -24 168 -2 11 0 30 5 42 4 13 3 25 -2 28 -13 8 -13 192 -1 199 5 3 5 21 1
40 -4 19 -4 39 0 45 4 7 8 39 9 73 1 34 6 84 12 111 10 56 12 117 3 117 -19 0
-65 -46 -75 -75 -7 -19 -16 -35 -20 -35 -4 0 -10 -15 -14 -32 -4 -18 -12 -42
-19 -53 -7 -11 -12 -29 -11 -40 0 -11 -3 -22 -7 -25 -4 -3 -9 -15 -11 -25 -2
-11 -8 -30 -15 -42 -7 -12 -12 -28 -12 -37 0 -8 -5 -27 -12 -43 -6 -15 -13
-39 -15 -53 -2 -14 -12 -68 -23 -120 -19 -98 -34 -226 -30 -270 1 -14 1 -32 1
-40 -1 -8 -1 -31 0 -50 1 -19 1 -42 1 -50 0 -34 29 -227 44 -288 20 -88 64
-252 74 -277 9 -21 21 -59 21 -62 0 -1 12 -31 26 -65 14 -35 36 -90 48 -124
29 -75 139 -286 201 -386 25 -40 58 -92 73 -116 29 -48 115 -167 162 -224 17
-20 30 -40 30 -43 -1 -6 35 -50 69 -85 14 -14 45 -49 68 -77 42 -51 43 -54 32
-88 -6 -19 -16 -35 -22 -35 -6 0 -9 -3 -5 -6 3 -4 -1 -21 -10 -38 -9 -17 -16
-41 -14 -53 1 -13 -3 -23 -9 -23 -7 0 -10 -8 -7 -20 3 -10 1 -20 -3 -22 -8 -3
-90 -244 -90 -265 0 -7 -4 -13 -10 -13 -6 0 -6 -9 0 -25 6 -15 6 -25 0 -25 -5
0 -16 -35 -26 -77 -9 -43 -20 -85 -25 -94 -5 -10 -3 -21 3 -27 9 -9 9 -12 0
-12 -6 0 -14 -17 -17 -37 -4 -21 -9 -45 -12 -53 -4 -8 -5 -21 -4 -27 1 -7 -3
-30 -8 -50 -6 -21 -15 -78 -21 -128 -6 -49 -13 -101 -15 -115 -9 -56 -17 -153
-24 -298 -5 -84 -11 -155 -14 -158 -3 -4 -2 -17 3 -30 6 -14 6 -26 0 -29 -6
-3 -6 -15 0 -30 6 -15 6 -27 0 -30 -6 -3 -6 -15 0 -30 6 -15 6 -27 0 -30 -5
-3 -6 -15 -1 -27 4 -12 5 -36 1 -53 -4 -17 -3 -39 1 -50 4 -11 8 -47 8 -80 2
-143 92 -714 114 -723 4 -2 4 -8 1 -14 -7 -10 -1 -34 53 -223 36 -127 62 -207
113 -345 18 -47 35 -96 40 -110 4 -14 22 -53 39 -87 17 -34 33 -73 37 -88 3
-14 10 -25 15 -25 5 0 9 -6 9 -13 0 -17 128 -277 146 -294 7 -8 14 -18 14 -23
0 -7 66 -125 90 -160 5 -8 30 -46 55 -85 24 -38 62 -94 82 -124 21 -29 43 -60
48 -69 6 -8 17 -23 25 -33 8 -10 33 -43 55 -74 22 -32 59 -77 83 -100 23 -24
42 -48 42 -53 0 -6 25 -35 55 -67 30 -31 55 -60 55 -64 0 -7 104 -113 241
-244 16 -16 29 -35 29 -43 0 -9 4 -13 8 -10 5 3 51 -33 103 -80 52 -47 113
-99 137 -116 23 -17 42 -35 42 -40 0 -4 6 -8 13 -8 8 0 24 -11 37 -25 13 -14
29 -25 35 -25 6 0 34 -20 61 -45 27 -25 52 -45 57 -45 4 0 50 -29 101 -64 51
-35 111 -74 132 -85 22 -12 61 -35 88 -52 57 -35 335 -179 386 -199 19 -8 40
-19 45 -26 6 -6 30 -19 55 -27 63 -22 231 -85 255 -96 11 -5 45 -17 75 -26 30
-9 63 -20 72 -26 10 -5 24 -9 32 -9 7 0 48 -11 89 -25 83 -27 214 -62 262 -71
59 -10 230 -46 235 -49 3 -2 12 0 20 5 8 5 19 5 25 0 6 -5 51 -14 100 -20 50
-7 97 -15 105 -20 8 -4 25 -3 38 1 14 5 22 5 22 -2 0 -6 3 -8 8 -6 4 3 61 1
127 -4 226 -15 667 -9 673 10 2 6 12 7 26 1 12 -4 29 -5 36 0 7 5 23 4 35 0
13 -5 26 -5 31 -1 5 4 52 13 104 20 116 15 194 28 283 48 38 8 71 12 74 9 4
-3 12 -1 20 6 7 6 16 8 20 5 3 -4 12 -2 20 5 8 6 26 13 41 14 34 3 120 27 235
65 48 16 91 28 95 27 4 0 24 6 44 15 21 10 42 17 47 17 25 0 332 129 343 144
3 5 14 11 24 12 23 4 67 26 76 39 4 5 11 10 15 11 4 0 35 13 68 28 33 15 70
32 83 37 13 5 43 23 67 39 24 17 50 30 58 30 8 0 21 7 28 16 7 9 22 20 34 26
55 25 87 45 86 54 -1 5 9 10 21 10 12 1 27 9 33 18 7 9 15 16 18 16 6 0 129
80 137 89 3 4 30 24 60 45 30 22 57 43 58 48 2 4 8 8 14 8 6 0 28 15 49 33 82
68 113 92 116 87 1 -3 10 5 19 18 9 13 38 40 64 61 27 21 47 41 44 43 -6 7
101 98 116 98 6 0 9 4 5 9 -3 6 13 24 35 42 21 17 37 36 34 40 -3 5 0 9 7 9
12 0 49 38 49 51 0 4 9 11 20 14 11 4 18 10 15 14 -2 4 6 13 18 20 12 7 28 25
35 41 7 16 22 32 33 35 10 4 19 11 19 16 0 9 8 19 60 77 17 18 30 36 30 40 0
6 11 20 71 90 10 12 19 25 19 28 0 4 13 20 30 35 16 16 38 46 49 68 11 21 27
41 36 44 8 4 15 11 15 17 0 6 32 58 70 115 39 57 70 109 70 114 0 6 7 14 16
19 9 5 15 12 15 15 -1 12 32 77 39 77 4 0 20 28 35 61 15 34 38 77 51 97 13
19 24 42 24 51 0 9 6 27 14 41 7 14 25 47 40 74 14 27 26 53 26 59 0 5 12 32
26 61 15 28 35 75 45 105 10 30 24 60 30 67 6 8 9 14 6 14 -3 0 8 35 25 78 16
42 36 97 44 122 8 25 18 54 23 65 5 11 14 38 20 60 5 22 19 72 31 110 20 67
54 215 65 281 3 17 14 74 25 127 19 96 38 228 46 322 2 28 6 66 10 85 7 39 11
509 5 670 -2 58 -7 113 -13 123 -5 10 -5 17 1 17 6 0 6 11 1 28 -5 15 -14 72
-20 127 -12 114 -12 115 -46 285 -42 208 -104 450 -133 515 -15 33 -25 59 -26
70 -5 30 -20 72 -31 90 -8 11 -14 27 -14 35 0 9 -13 44 -30 78 -16 34 -30 68
-30 74 0 6 27 38 59 70 33 32 57 58 54 58 -3 0 12 16 33 35 21 19 34 35 30 35
-6 0 30 52 69 97 49 57 265 387 265 405 0 6 15 32 34 57 18 26 39 65 46 86 7
21 24 64 39 94 14 31 26 58 27 61 3 14 17 48 29 70 24 45 124 354 141 436 9
43 18 86 19 94 2 8 4 15 5 15 0 0 3 23 5 50 3 28 7 77 10 110 8 82 8 125 0
225 -11 151 -38 307 -54 323 -7 7 -7 16 0 29 6 10 6 18 0 18 -5 0 -12 17 -16
38 -7 38 -34 124 -56 177 -15 36 -14 33 -24 70 -4 17 -13 37 -19 45 -6 8 -22
36 -36 63 -13 26 -27 47 -30 47 -10 0 -28 -60 -19 -65 4 -3 4 -16 -1 -29 -5
-13 -6 -26 -4 -29 6 -6 12 -48 19 -132 2 -33 7 -71 10 -85 16 -72 -4 -449 -25
-475 -5 -6 -5 -17 0 -24 4 -8 4 -21 0 -30 -12 -23 -32 -150 -25 -161 3 -5 1
-11 -5 -15 -5 -3 -10 -21 -10 -39 0 -17 -5 -37 -12 -44 -7 -7 -9 -12 -6 -12 3
0 -1 -26 -9 -57 -15 -65 -16 -66 -38 -143 -9 -30 -20 -69 -24 -87 -17 -65 -75
-230 -102 -291 -16 -35 -29 -69 -29 -77 0 -8 -4 -15 -10 -15 -5 0 -10 -10 -10
-23 0 -12 -16 -47 -35 -77 -19 -30 -38 -64 -41 -75 -4 -11 -10 -22 -14 -25 -3
-3 -21 -26 -38 -52 -18 -25 -38 -53 -46 -61 -8 -8 -12 -17 -9 -20 8 -8 -20
-49 -63 -95 -19 -20 -34 -40 -34 -44 0 -4 -7 -8 -15 -8 -8 0 -15 -4 -15 -10 0
-5 -13 -22 -30 -37 -16 -14 -30 -33 -30 -40 0 -8 -4 -12 -9 -8 -5 3 -12 -4
-16 -15 -4 -11 -17 -31 -29 -43 -13 -13 -25 -30 -28 -38 -5 -11 -9 -10 -21 6
-10 13 -12 22 -5 26 7 5 7 8 0 10 -14 5 -142 263 -147 298 -3 14 -7 40 -9 58
-2 17 -7 37 -11 42 -3 6 -1 11 5 11 7 0 8 6 2 18 -4 9 -7 28 -5 42 6 48 6 118
-1 128 -3 6 -2 13 3 16 5 4 10 75 10 162 0 85 5 219 10 297 19 252 21 281 22
317 1 19 0 40 -1 45 -2 6 -1 17 2 25 6 14 16 66 37 175 6 30 6 56 0 66 -6 11
-5 20 1 24 7 4 7 12 0 25 -5 10 -10 30 -10 44 0 14 -12 62 -27 108 -15 46 -28
88 -28 93 -3 30 -46 105 -72 123 l-29 21 -18 -82 c-10 -45 -26 -122 -36 -172
-43 -213 -62 -290 -71 -293 -5 -2 -7 -7 -4 -12 6 -9 -11 -93 -54 -271 -17 -68
-32 -139 -33 -157 -1 -19 -6 -36 -10 -38 -4 -3 -8 -20 -8 -38 0 -18 -3 -36 -7
-39 -3 -4 -5 -40 -4 -81 2 -61 -1 -74 -15 -80 -21 -8 -60 17 -82 53 -10 16
-43 57 -75 91 -31 34 -57 66 -57 71 0 5 -7 9 -15 9 -8 0 -15 4 -15 10 0 13
-332 345 -395 395 -27 22 -57 48 -66 57 -9 10 -21 18 -26 18 -5 0 -25 13 -44
30 -19 16 -39 33 -45 38 -6 5 -29 21 -51 35 -23 15 -44 31 -48 37 -8 14 -200
140 -212 140 -6 0 -18 9 -28 20 -10 11 -24 20 -31 20 -7 0 -19 6 -26 13 -14
14 -190 117 -200 117 -3 0 -38 18 -77 40 -40 23 -76 38 -81 35 -6 -3 -10 -2
-10 3 0 10 -99 60 -210 107 -36 15 -81 34 -100 43 -19 8 -46 17 -60 19 -13 3
-29 8 -35 12 -20 15 -244 86 -395 125 -184 47 -350 79 -510 96 -58 7 -115 16
-127 20 -12 5 -25 6 -27 1 -3 -5 -25 -5 -48 0 -24 4 -73 8 -110 9 -38 0 -68 4
-68 9 0 6 -12 6 -30 1 -16 -5 -32 -5 -35 0 -3 4 -20 4 -39 0 -20 -4 -36 -5
-38 -1 -2 3 -79 3 -173 0z m-185 -418 c51 12 487 11 495 -1 4 -6 13 -7 24 -1
9 5 23 6 30 2 7 -5 27 -5 44 -1 18 3 41 3 52 -1 27 -10 226 -32 232 -25 3 3
12 -2 20 -10 8 -8 18 -12 23 -9 4 3 32 0 61 -6 30 -6 77 -15 104 -19 100 -15
488 -125 493 -140 2 -6 7 -8 12 -5 31 19 578 -222 690 -305 19 -14 61 -38 93
-53 31 -16 57 -32 57 -37 0 -4 14 -13 30 -20 17 -7 50 -28 73 -46 23 -19 46
-34 50 -34 4 0 13 -5 20 -10 7 -6 37 -29 67 -51 57 -41 119 -91 151 -121 11
-10 19 -17 19 -15 0 1 32 -28 72 -65 40 -38 78 -68 85 -68 7 0 13 -4 13 -9 0
-5 55 -65 123 -134 67 -68 137 -147 156 -174 19 -28 47 -58 63 -68 16 -9 26
-21 22 -26 -3 -5 13 -28 35 -51 23 -22 41 -44 41 -49 0 -5 14 -22 31 -39 18
-16 30 -30 27 -30 -3 0 12 -19 33 -42 39 -42 119 -188 119 -215 0 -8 16 -62
35 -120 20 -58 40 -142 46 -185 5 -43 14 -89 19 -103 5 -13 5 -27 1 -30 -5 -3
-5 -21 -1 -40 4 -19 4 -37 -1 -40 -4 -3 -4 -16 1 -29 4 -12 4 -29 0 -36 -5 -9
-4 -20 2 -27 7 -9 7 -17 -1 -26 -6 -8 -8 -17 -4 -20 14 -14 -30 -125 -63 -160
-19 -19 -34 -42 -34 -50 0 -23 -92 -107 -117 -107 -12 0 -25 -4 -28 -10 -3 -5
-10 -10 -16 -10 -12 0 -11 64 2 136 7 32 13 71 14 86 1 15 4 30 7 33 3 3 2 21
-2 40 -5 21 -4 35 3 38 6 2 6 10 -2 25 -8 15 -8 22 -1 22 6 0 9 4 6 9 -6 9
-24 143 -36 273 -4 47 -19 128 -33 180 -14 51 -30 118 -37 148 -13 57 -86 256
-102 277 -5 6 -16 9 -24 6 -8 -3 -12 -8 -10 -11 3 -3 1 -11 -5 -18 -6 -8 -18
-67 -26 -131 -12 -100 -14 -138 -11 -218 0 -5 -2 -32 -6 -60 -3 -27 -8 -90
-11 -140 -2 -49 -5 -90 -6 -90 -6 0 -23 -138 -18 -152 3 -10 3 -20 0 -23 -8
-6 -40 -127 -54 -207 -6 -35 -14 -63 -18 -63 -4 0 -15 -26 -24 -57 -26 -90
-75 -189 -117 -236 -20 -23 -38 -47 -38 -53 0 -10 -62 -71 -136 -135 -32 -27
-154 -88 -216 -108 -21 -7 -40 -16 -42 -19 -2 -4 -19 -7 -38 -7 -18 1 -35 -2
-38 -6 -3 -4 -84 -28 -180 -54 -96 -26 -180 -51 -186 -56 -6 -5 -13 -7 -16 -4
-2 3 -30 -4 -62 -15 -31 -11 -61 -18 -67 -15 -5 4 -9 2 -9 -3 0 -9 -101 -44
-109 -37 -5 6 30 87 41 95 4 3 14 22 23 43 8 20 20 37 25 37 5 0 15 19 21 43
7 23 17 48 23 55 5 8 11 21 12 30 1 10 14 67 29 127 50 199 34 474 -44 769
-12 44 -26 84 -31 91 -5 7 -7 14 -4 18 7 6 -25 57 -36 57 -8 0 -23 -42 -26
-75 -2 -25 -17 -114 -45 -265 -11 -63 -24 -142 -29 -175 -15 -116 -51 -271
-80 -347 -17 -42 -31 -85 -33 -95 -1 -10 -13 -35 -25 -54 -12 -20 -22 -43 -22
-51 0 -8 -11 -32 -25 -52 -13 -20 -22 -36 -20 -36 3 0 -6 -18 -20 -40 -14 -22
-25 -44 -25 -50 0 -6 -4 -9 -8 -6 -5 3 -19 -13 -31 -35 -26 -46 -199 -229
-217 -229 -12 0 -29 -28 -26 -42 1 -5 -4 -8 -12 -8 -16 0 -226 -205 -226 -221
0 -5 -4 -7 -10 -4 -5 3 -10 2 -10 -4 0 -5 -27 -40 -60 -78 -33 -37 -60 -73
-60 -80 0 -7 -3 -13 -8 -13 -4 0 -21 -21 -39 -47 -29 -46 -35 -49 -114 -72
-46 -13 -95 -27 -109 -31 -77 -24 -317 -66 -336 -59 -11 3 -27 3 -38 -1 -18
-6 -184 17 -276 39 -251 59 -228 50 -302 122 -37 37 -68 73 -68 79 0 13 -83
112 -155 186 -22 23 -49 52 -61 65 -24 27 -173 165 -221 204 -18 15 -33 33
-33 41 0 9 -3 13 -7 11 -6 -4 -121 125 -151 168 -57 84 -167 320 -193 415 -12
47 -26 89 -31 94 -4 6 -8 28 -8 50 0 23 -7 77 -16 121 -9 44 -24 124 -33 177
-9 53 -19 99 -23 103 -3 4 -2 20 2 36 5 17 5 31 -1 34 -5 4 -9 31 -9 62 0 59
-16 118 -38 142 -7 7 -14 12 -16 10 -8 -12 -56 -121 -56 -129 0 -6 -9 -36 -19
-67 -11 -32 -22 -78 -25 -103 -2 -25 -12 -76 -21 -114 -9 -38 -15 -84 -13
-102 1 -18 0 -36 -4 -39 -3 -3 -2 -22 2 -41 4 -18 5 -34 1 -34 -3 0 -5 -21 -4
-47 3 -72 3 -96 2 -113 -1 -24 20 -141 37 -200 9 -30 39 -102 67 -160 28 -58
50 -108 49 -112 -1 -5 2 -8 7 -8 8 0 24 -37 22 -52 -1 -5 4 -8 9 -8 6 0 10 -7
10 -16 0 -12 -5 -14 -17 -9 -10 4 -66 22 -125 39 -58 18 -113 37 -120 44 -8 6
-17 9 -21 6 -3 -3 -38 4 -79 16 -40 12 -93 28 -118 35 -25 8 -101 28 -170 45
-69 18 -140 40 -158 51 -18 10 -40 19 -48 19 -8 0 -25 11 -37 24 -12 13 -32
26 -44 30 -53 17 -253 243 -253 286 0 5 -15 35 -34 68 -18 33 -43 93 -55 133
-12 41 -28 93 -35 117 -8 23 -9 45 -5 48 5 3 5 13 0 23 -9 15 -32 137 -46 236
-5 32 -24 284 -31 403 -2 41 -6 78 -9 82 -3 5 -1 11 5 15 6 4 8 11 4 16 -3 6
-8 43 -11 82 -3 40 -7 74 -9 76 -2 2 -11 -11 -21 -29 -10 -18 -25 -41 -34 -50
-9 -10 -25 -31 -35 -49 -10 -17 -22 -31 -26 -31 -4 0 -8 -8 -8 -18 0 -10 -3
-22 -7 -26 -4 -3 -8 -14 -9 -24 -1 -9 -15 -64 -32 -122 -37 -125 -51 -201 -58
-295 -3 -38 -7 -76 -10 -84 -12 -36 -14 -267 -3 -378 6 -68 9 -126 6 -129 -10
-10 -52 4 -77 26 -13 11 -29 20 -37 20 -7 0 -13 6 -13 14 0 7 -11 24 -24 37
-29 29 -86 135 -86 160 0 10 -4 20 -8 23 -4 2 -9 40 -11 83 -1 43 -3 89 -4
103 -2 35 12 165 25 230 6 30 12 62 13 72 0 9 7 23 14 32 8 9 11 16 7 16 -3 0
10 43 29 95 19 52 32 95 29 95 -3 0 -2 6 3 13 4 6 8 14 8 17 3 19 35 77 48 89
10 7 17 20 17 27 0 8 4 14 10 14 5 0 17 15 26 33 15 31 36 56 116 138 21 21
38 41 38 44 0 4 11 18 25 33 13 15 66 75 117 133 136 155 278 299 295 299 5 0
43 34 86 75 42 41 81 75 86 75 8 0 49 34 101 84 28 26 71 51 83 48 4 -1 7 2 7
6 0 11 86 73 92 67 2 -2 19 9 38 25 19 17 41 30 48 30 6 0 12 5 12 11 0 5 4 7
10 4 6 -3 10 -1 10 4 0 6 5 11 11 11 6 0 22 9 36 20 14 11 33 20 41 20 9 0 28
12 43 26 14 14 33 26 40 27 8 2 36 15 63 30 27 15 54 27 61 27 7 0 23 8 36 18
28 20 64 38 99 48 13 4 30 13 38 20 7 8 22 14 33 14 11 0 22 7 25 15 4 8 10
12 15 10 5 -3 32 5 61 18 29 13 70 27 90 31 21 4 41 12 45 19 5 7 37 20 73 30
64 17 71 19 100 29 51 18 160 48 186 52 17 2 40 8 50 14 11 5 39 13 64 17 25
4 50 11 57 17 7 6 14 5 18 -3 6 -8 9 -8 14 0 4 6 32 14 62 17 30 3 57 8 61 10
7 4 135 22 288 40 25 3 47 7 48 9 2 2 13 0 25 -4 12 -4 37 -4 57 0z m-3456
-2956 c59 -58 111 -103 114 -101 4 2 13 -2 20 -10 7 -8 9 -14 5 -14 -4 -1 2
-6 13 -13 12 -7 39 -27 60 -45 81 -69 214 -172 222 -172 5 0 17 -9 27 -20 10
-11 24 -20 32 -20 7 0 13 -7 13 -15 0 -8 9 -15 20 -15 11 0 20 -5 20 -10 0 -6
8 -14 18 -17 9 -4 44 -29 77 -55 33 -27 65 -53 72 -58 7 -6 17 -10 24 -10 6 0
28 -13 48 -28 20 -16 72 -53 116 -82 44 -29 83 -58 87 -64 4 -6 8 -8 8 -4 0 5
30 -12 68 -35 108 -69 192 -117 206 -117 8 0 19 -6 25 -14 7 -8 24 -17 39 -21
15 -3 59 -22 99 -41 39 -19 81 -34 92 -34 12 0 21 -4 21 -10 0 -5 7 -7 15 -4
8 4 21 2 28 -4 22 -17 224 -75 305 -86 9 -2 18 -8 20 -14 2 -7 7 -10 12 -7 9
6 165 -37 225 -62 165 -67 302 -140 313 -165 2 -3 29 -26 60 -50 31 -24 62
-48 67 -54 6 -6 47 -41 93 -79 45 -38 81 -73 79 -79 -6 -19 -75 -14 -140 9
-34 12 -106 43 -160 69 -54 26 -102 44 -107 41 -6 -3 -10 -2 -10 4 0 5 -13 12
-30 16 -16 4 -30 11 -30 16 0 6 -4 8 -9 5 -5 -4 -22 1 -38 9 -42 22 -304 107
-335 108 -16 1 -28 5 -28 9 0 6 -43 19 -80 23 -8 1 -55 16 -105 33 -49 16
-110 35 -135 43 -25 7 -70 22 -100 34 -30 13 -66 26 -79 30 l-24 7 8 -78 c4
-44 11 -83 16 -88 5 -6 9 -20 9 -31 0 -20 29 -111 78 -241 30 -80 147 -284
162 -284 6 0 10 -8 10 -17 0 -12 39 -44 105 -88 58 -38 105 -73 105 -77 0 -5
6 -8 13 -8 7 0 36 -16 66 -35 29 -19 56 -35 61 -35 4 0 37 -17 71 -38 35 -21
100 -56 144 -77 44 -22 83 -44 86 -48 4 -5 13 -7 20 -5 8 3 18 0 24 -5 5 -5
69 -39 140 -76 l130 -66 3 -40 c1 -22 9 -76 17 -120 20 -117 27 -165 30 -212
2 -23 9 -55 17 -70 8 -16 14 -37 12 -46 -1 -9 2 -17 7 -17 5 0 9 -4 9 -10 0
-5 36 -64 80 -131 44 -66 80 -122 80 -125 0 -3 8 -17 19 -32 10 -15 37 -56 59
-92 23 -36 46 -70 51 -77 6 -7 11 -15 11 -19 0 -4 15 -30 33 -58 39 -61 52
-84 69 -116 7 -14 15 -27 18 -30 12 -11 90 -147 90 -157 0 -6 4 -13 8 -15 5
-1 32 -46 62 -98 29 -52 75 -133 102 -178 26 -46 48 -86 48 -88 0 -3 10 -19
22 -37 13 -18 23 -33 23 -34 0 -1 52 2 115 7 62 4 123 5 134 1 11 -5 36 -4 56
0 19 5 69 11 110 15 41 4 82 7 90 9 8 1 24 18 35 37 45 80 87 149 99 161 6 6
29 41 51 77 21 36 45 73 54 84 9 10 15 20 13 22 -1 3 2 10 8 17 15 18 80 118
80 123 0 3 19 35 43 72 24 37 63 101 88 142 24 41 65 108 91 147 27 40 48 77
48 83 0 5 4 10 9 10 5 0 12 8 15 18 4 10 33 59 66 108 33 49 60 95 60 102 0 7
4 11 8 8 5 -3 20 21 34 52 36 80 48 121 37 127 -4 3 -4 15 1 28 5 12 14 65 19
117 6 52 13 106 15 120 3 14 7 42 9 62 2 21 10 44 16 52 7 8 118 67 247 132
129 64 234 120 234 125 0 5 3 8 8 7 15 -5 72 21 72 33 0 7 3 10 6 7 6 -6 145
75 201 118 17 13 35 24 40 24 29 0 202 175 210 212 3 15 9 26 13 23 4 -3 11 5
15 18 4 12 8 24 9 27 16 48 43 110 56 130 15 22 27 55 30 85 1 6 7 17 14 25 8
8 16 26 19 40 6 26 19 83 42 183 7 31 10 57 6 57 -4 0 -6 14 -5 30 2 36 -1 36
-70 6 -30 -13 -57 -22 -60 -18 -3 3 -6 0 -6 -6 0 -7 -9 -12 -20 -12 -11 0 -23
-6 -26 -14 -3 -8 -11 -13 -18 -10 -7 3 -37 -4 -67 -15 -30 -11 -81 -27 -114
-35 -131 -34 -201 -55 -230 -70 -16 -9 -38 -16 -48 -16 -19 0 -158 -45 -242
-78 -27 -11 -74 -30 -102 -41 -29 -11 -76 -32 -105 -47 -50 -24 -272 -104
-290 -104 -17 0 -7 37 15 57 13 11 30 29 38 39 8 11 61 57 119 103 58 46 114
91 125 100 11 9 37 27 58 41 20 14 37 28 37 31 0 3 10 5 22 4 12 -1 33 8 46
20 13 13 43 28 66 36 22 7 46 16 51 20 6 4 53 18 105 32 207 55 397 107 428
116 51 15 206 74 212 80 3 4 14 7 25 9 11 2 29 10 41 17 11 7 39 19 62 26 23
7 42 16 42 20 0 4 26 20 58 35 63 31 159 90 181 111 7 8 21 11 29 8 9 -3 13
-3 10 1 -4 4 14 20 40 37 26 16 59 38 74 48 14 10 32 20 39 21 7 2 20 10 29
18 52 46 83 70 91 70 5 0 9 4 9 8 0 5 15 16 33 26 17 9 44 24 60 32 15 8 27
22 27 30 0 8 4 13 8 10 5 -3 44 22 87 55 43 32 81 59 84 59 3 0 24 16 46 36
22 20 51 43 65 52 14 9 42 32 62 51 21 19 48 41 60 49 12 9 29 23 38 31 10 9
39 37 66 62 70 65 183 159 192 159 18 0 72 -131 92 -225 4 -22 24 -101 44
-175 20 -74 41 -171 47 -215 6 -44 15 -87 20 -96 4 -8 4 -21 -1 -29 -4 -7 -5
-23 0 -34 10 -27 27 -131 37 -221 9 -92 10 -711 1 -800 -9 -82 -25 -199 -34
-235 -3 -14 -7 -43 -9 -65 -5 -58 -32 -189 -56 -268 -11 -37 -19 -73 -18 -80
1 -7 -3 -25 -9 -40 -7 -16 -12 -34 -12 -40 0 -7 -9 -39 -20 -72 -11 -33 -31
-94 -44 -135 -23 -69 -102 -265 -154 -383 -12 -26 -22 -51 -22 -55 -1 -4 -7
-14 -13 -22 -7 -8 -21 -33 -32 -55 -11 -22 -24 -43 -30 -47 -5 -4 -7 -8 -3 -8
4 0 -6 -23 -22 -50 -17 -28 -30 -53 -30 -55 0 -2 -13 -23 -29 -47 -16 -24 -43
-70 -59 -103 -17 -33 -43 -71 -57 -85 -14 -13 -25 -29 -25 -35 0 -7 -8 -21
-17 -32 -43 -50 -63 -78 -63 -88 0 -6 -15 -27 -34 -47 -18 -19 -35 -40 -37
-46 -5 -13 -43 -63 -79 -101 -14 -15 -38 -45 -55 -67 -16 -21 -44 -53 -62 -70
-18 -17 -33 -36 -33 -43 0 -6 -4 -11 -10 -11 -5 0 -10 -7 -10 -17 0 -9 -2 -14
-5 -11 -7 7 -115 -102 -115 -116 0 -5 -3 -7 -6 -3 -3 3 -24 -14 -45 -39 -21
-25 -39 -43 -39 -39 0 3 -14 -10 -31 -30 -17 -19 -37 -35 -45 -35 -8 0 -14 -7
-14 -15 0 -8 -3 -15 -7 -15 -5 0 -40 -28 -80 -63 -91 -80 -139 -118 -175 -139
-15 -10 -28 -22 -28 -27 0 -5 -10 -13 -22 -17 -12 -3 -31 -15 -42 -25 -11 -11
-26 -19 -33 -19 -7 0 -13 -5 -13 -11 0 -5 -4 -7 -10 -4 -6 3 -10 -1 -10 -9 0
-9 -6 -16 -14 -16 -8 0 -28 -11 -44 -25 -16 -13 -32 -22 -35 -19 -3 3 -8 -3
-11 -13 -3 -10 -16 -19 -27 -20 -12 -1 -29 -8 -38 -16 -64 -55 -505 -279 -574
-292 -22 -4 -37 -2 -44 7 -6 7 -43 99 -83 203 -39 105 -87 228 -105 275 -18
47 -50 130 -71 185 -20 55 -41 105 -44 110 -4 6 -10 23 -14 38 -4 16 -18 52
-31 80 -14 28 -25 57 -25 64 0 7 -11 36 -24 65 -13 29 -29 71 -36 93 -7 22
-16 42 -19 45 -6 5 -62 172 -65 197 -1 8 -7 18 -13 21 -6 4 -17 26 -24 50 -7
23 -15 41 -18 39 -3 -1 -18 -9 -33 -16 -15 -8 -30 -22 -33 -31 -3 -9 -18 -28
-34 -42 -29 -26 -101 -137 -101 -156 0 -6 -10 -19 -23 -29 -27 -22 -87 -103
-87 -117 0 -6 -12 -25 -28 -41 -37 -42 -72 -92 -72 -105 0 -5 -5 -10 -10 -10
-6 0 -15 -11 -20 -25 -5 -14 -14 -25 -19 -25 -6 0 -22 -21 -37 -47 -15 -27
-41 -68 -58 -93 -17 -25 -30 -48 -29 -52 2 -4 -6 -10 -17 -13 -12 -4 -17 -13
-15 -25 5 -25 -39 -35 -92 -21 -93 24 -144 24 -419 -4 -56 -6 -64 -4 -83 16
-12 13 -21 26 -21 31 0 4 -8 16 -17 26 -38 39 -75 89 -94 124 -11 21 -24 38
-29 38 -6 0 -10 7 -10 15 0 9 -11 28 -24 42 -14 15 -23 30 -21 34 3 4 -9 21
-25 39 -17 18 -47 60 -67 94 -20 33 -47 72 -60 87 -13 14 -23 30 -23 35 0 9
-59 96 -90 132 -6 6 -8 12 -5 12 4 0 -8 19 -27 42 -18 23 -32 45 -31 48 5 11
-70 81 -78 73 -5 -5 -22 -44 -38 -88 -37 -102 -146 -368 -165 -403 -8 -15 -19
-46 -26 -70 -6 -24 -34 -98 -61 -165 -27 -67 -51 -129 -54 -138 -2 -9 -8 -25
-13 -35 -21 -41 -54 -134 -55 -156 -1 -10 -4 -18 -7 -18 -4 0 -32 -54 -36 -70
0 -3 -4 -14 -9 -25 -41 -106 -95 -247 -104 -277 -16 -48 -33 -61 -73 -55 -31
4 -87 25 -98 37 -6 6 -28 12 -50 14 -8 0 -17 4 -20 7 -6 7 -144 83 -147 81 -2
0 -18 5 -37 13 -20 8 -39 15 -44 15 -5 0 -19 11 -31 24 -13 14 -37 30 -54 37
-18 7 -44 21 -59 31 -16 11 -28 16 -28 12 0 -4 -10 1 -22 12 -44 38 -115 83
-122 77 -3 -3 -6 1 -6 10 0 10 -6 17 -14 17 -8 0 -27 10 -43 23 -15 13 -50 36
-78 52 -27 15 -65 45 -83 67 -19 21 -39 38 -46 38 -7 0 -27 14 -45 32 -18 18
-40 33 -48 34 -18 3 -33 22 -33 42 0 6 -5 12 -11 12 -25 0 -195 165 -369 356
-136 150 -230 266 -230 284 0 5 -4 10 -8 10 -4 0 -15 12 -24 28 -9 15 -27 39
-40 53 -30 32 -78 106 -78 119 0 5 -5 10 -10 10 -6 0 -14 8 -17 18 -4 9 -25
44 -47 77 -22 33 -48 74 -56 90 -9 17 -29 50 -43 75 -23 38 -100 191 -192 385
-46 94 -97 235 -92 249 3 8 3 16 -2 18 -9 4 -71 178 -71 201 0 9 -4 17 -8 17
-5 0 -9 6 -9 13 0 6 -6 32 -13 57 -24 87 -61 277 -91 470 -27 177 -30 226 -36
527 -4 215 -3 337 4 345 5 7 7 24 4 37 -8 30 6 179 18 202 5 9 5 22 1 29 -5 8
-5 21 0 29 4 9 12 48 18 86 6 39 14 88 17 110 4 22 9 58 12 80 3 22 16 81 30
130 13 50 28 110 33 135 10 60 36 152 62 223 30 82 42 78 172 -48z"/>
</g>
</svg>
