<?xml version="1.0" encoding="utf-8"?>
<!-- Generator: Adobe Illustrator 24.1.3, SVG Export Plug-In . SVG Version: 6.00 Build 0)  -->
<svg version="1.1" id="Layer_1" xmlns="http://www.w3.org/2000/svg" xmlns:xlink="http://www.w3.org/1999/xlink" x="0px" y="0px"
	 width="518px" height="277px" viewBox="0 0 518 277" style="enable-background:new 0 0 518 277;" xml:space="preserve">
<style type="text/css">
	.st0{fill:#A3E2FF;}
	.st1{fill:#7AD1FF;}
	.st2{fill:#485662;}
	.st3{fill:none;stroke:#485662;stroke-width:2;}
	.st4{fill:#018BFF;}
	.st5{fill:#002B66;}
	.st6{fill:#0056B3;}
	.st7{fill:#0070D9;}
	.st8{fill:#FFFFFF;fill-opacity:0.5;stroke:#000000;}
	.st9{fill:none;stroke:#686868;stroke-width:2;stroke-dasharray:5,5;}
	.st10{fill:#FFFFFF;fill-opacity:0.5;stroke:#000000;stroke-width:2;}
</style>
<rect x="26.798" y="99.707" class="st0" width="159.855" height="104.421"/>
<ellipse class="st1" cx="106.726" cy="99.707" rx="79.928" ry="37.385"/>
<ellipse class="st1" cx="106.726" cy="204.129" rx="79.928" ry="39.706"/>
<path class="st2" d="M126.12,168.357c-0.059,0.27,0.113,0.536,0.383,0.594l4.397,0.955c0.27,0.059,0.536-0.112,0.595-0.382
	c0.058-0.27-0.113-0.536-0.383-0.595l-3.909-0.849l0.849-3.909c0.059-0.269-0.113-0.536-0.383-0.594
	c-0.269-0.059-0.536,0.112-0.594,0.382L126.12,168.357z M150.817,152.296l-24.479,15.746l0.541,0.841l24.479-15.746L150.817,152.296
	z"/>
<path class="st2" d="M387.246,60.657c-0.117,0.54,0.226,1.072,0.766,1.189l8.795,1.909c0.539,0.117,1.072-0.225,1.189-0.765
	s-0.225-1.072-0.765-1.189l-7.818-1.697l1.697-7.818c0.118-0.54-0.225-1.072-0.765-1.189c-0.539-0.117-1.072,0.225-1.189,0.765
	L387.246,60.657z M436.407,28.687l-48.724,31.342l1.082,1.682l48.724-31.342L436.407,28.687z"/>
<path class="st2" d="M142.272,175.138c0.084,0.263,0.365,0.409,0.628,0.325l4.29-1.358c0.263-0.084,0.409-0.365,0.326-0.628
	c-0.084-0.263-0.365-0.409-0.628-0.326l-3.813,1.208l-1.208-3.813c-0.083-0.264-0.364-0.409-0.628-0.326
	c-0.263,0.083-0.409,0.364-0.325,0.628L142.272,175.138z M153.865,152.482l-11.56,22.274l0.888,0.461l11.559-22.274L153.865,152.482
	z"/>
<path class="st2" d="M439.239,82.172c0.164,0.527,0.724,0.822,1.252,0.658l8.595-2.67c0.527-0.164,0.822-0.724,0.658-1.252
	c-0.164-0.527-0.724-0.822-1.252-0.658l-7.639,2.373l-2.374-7.64c-0.164-0.528-0.724-0.822-1.251-0.658
	c-0.528,0.164-0.823,0.724-0.659,1.252L439.239,82.172z M457.633,46.57l-18.324,34.84l1.77,0.931l18.324-34.839L457.633,46.57z"/>
<path class="st2" d="M145.327,181.189c-0.205,0.185-0.22,0.502-0.034,0.706l3.027,3.33c0.186,0.204,0.502,0.219,0.706,0.033
	c0.205-0.186,0.22-0.502,0.034-0.706l-2.691-2.96l2.96-2.691c0.204-0.185,0.219-0.501,0.034-0.706
	c-0.186-0.204-0.502-0.219-0.707-0.033L145.327,181.189z M171.631,182.294l-25.944-1.235l-0.048,0.999l25.945,1.235L171.631,182.294
	z"/>
<path class="st2" d="M448.914,102.289c-0.413,0.367-0.45,0.999-0.084,1.412l5.979,6.728c0.366,0.412,0.998,0.45,1.411,0.083
	c0.413-0.367,0.45-0.999,0.084-1.412l-5.314-5.98l5.98-5.314c0.413-0.367,0.45-0.999,0.083-1.412
	c-0.367-0.413-0.999-0.45-1.412-0.083L448.914,102.289z M492.062,104.541l-42.425-2.503l-0.118,1.997l42.425,2.502L492.062,104.541z
	"/>
<path class="st2" d="M143.614,185.19c-0.274-0.037-0.526,0.154-0.564,0.427l-0.612,4.459c-0.038,0.273,0.153,0.525,0.427,0.563
	c0.273,0.038,0.526-0.154,0.563-0.427l0.545-3.963l3.963,0.545c0.273,0.037,0.526-0.154,0.563-0.427
	c0.038-0.274-0.153-0.526-0.427-0.564L143.614,185.19z M159.223,205.533l-15.279-20.15l-0.797,0.605l15.279,20.149L159.223,205.533z
	"/>
<path class="st2" d="M442.897,115.335c-0.547-0.076-1.052,0.307-1.127,0.854l-1.229,8.916c-0.075,0.547,0.308,1.051,0.855,1.127
	c0.547,0.075,1.051-0.307,1.127-0.854l1.092-7.925l7.925,1.091c0.547,0.076,1.052-0.307,1.127-0.854
	c0.075-0.547-0.307-1.051-0.854-1.127L442.897,115.335z M488.142,174.555l-44.584-58.834l-1.594,1.208l44.584,58.834
	L488.142,174.555z"/>
<path class="st2" d="M138.563,209.932c0.192,0.199,0.508,0.205,0.707,0.013l3.238-3.125c0.198-0.192,0.204-0.509,0.012-0.707
	c-0.192-0.199-0.508-0.205-0.707-0.013l-2.878,2.778L136.157,206c-0.192-0.198-0.508-0.204-0.707-0.012
	c-0.198,0.192-0.204,0.508-0.012,0.707L138.563,209.932z M138.882,183.552l-0.459,26.024l1,0.018l0.459-26.025L138.882,183.552z"/>
<path class="st2" d="M122.441,177.035c-0.253-0.109-0.548,0.007-0.658,0.26l-1.791,4.128c-0.11,0.254,0.006,0.548,0.26,0.658
	c0.253,0.11,0.547-0.006,0.657-0.26l1.593-3.669l3.669,1.592c0.253,0.11,0.548-0.006,0.658-0.259c0.11-0.254-0.007-0.548-0.26-0.658
	L122.441,177.035z M137.551,214.913l-14.844-37.602l-0.93,0.367l14.844,37.602L137.551,214.913z"/>
<path class="st2" d="M374.561,89.032c-0.507-0.22-1.096,0.013-1.315,0.519l-3.583,8.256c-0.22,0.507,0.013,1.096,0.519,1.315
	c0.507,0.22,1.096-0.013,1.316-0.519l3.184-7.339l7.339,3.185c0.507,0.22,1.096-0.013,1.315-0.519
	c0.22-0.507-0.012-1.096-0.519-1.315L374.561,89.032z M422.89,210.659L375.093,89.582l-1.86,0.734l47.796,121.076L422.89,210.659z"
	/>
<path class="st2" d="M115.276,201.709c0.166,0.221,0.479,0.265,0.7,0.099l3.598-2.703c0.221-0.166,0.265-0.479,0.099-0.7
	c-0.166-0.221-0.479-0.265-0.7-0.099l-3.198,2.403l-2.403-3.198c-0.165-0.221-0.479-0.266-0.7-0.1c-0.22,0.166-0.265,0.48-0.099,0.7
	L115.276,201.709z M119.215,172.926l-4.034,28.412l0.99,0.141l4.034-28.412L119.215,172.926z"/>
<path class="st2" d="M352.221,167.554c0.332,0.441,0.958,0.53,1.4,0.198l7.195-5.406c0.442-0.331,0.531-0.958,0.199-1.4
	c-0.332-0.441-0.958-0.53-1.4-0.199l-6.396,4.806l-4.805-6.396c-0.332-0.442-0.959-0.531-1.401-0.199
	c-0.441,0.332-0.53,0.959-0.198,1.4L352.221,167.554z M365.02,75.327l-12.99,91.485l1.98,0.282L367,75.608L365.02,75.327z"/>
<path class="st2" d="M108.422,180.746c-0.02,0.276,0.188,0.515,0.463,0.535l4.488,0.324c0.276,0.02,0.515-0.187,0.535-0.462
	c0.02-0.276-0.187-0.515-0.463-0.535l-3.989-0.288l0.288-3.99c0.02-0.275-0.187-0.515-0.463-0.535
	c-0.275-0.019-0.515,0.188-0.535,0.463L108.422,180.746z M116.867,173.245l-8.273,7.159l0.654,0.757l8.274-7.159L116.867,173.245z"
	/>
<path class="st2" d="M330.273,100.466c-0.04,0.551,0.374,1.029,0.925,1.069l8.977,0.648c0.551,0.04,1.03-0.374,1.069-0.925
	c0.04-0.551-0.374-1.03-0.925-1.069l-7.979-0.577l0.576-7.979c0.04-0.551-0.374-1.03-0.925-1.069c-0.551-0.04-1.03,0.375-1.07,0.925
	L330.273,100.466z M357.257,76.73l-26.641,23.052l1.309,1.512l26.64-23.052L357.257,76.73z"/>
<path class="st2" d="M110.633,212.127c-0.004-0.276-0.231-0.497-0.507-0.493l-4.5,0.063c-0.276,0.004-0.497,0.231-0.493,0.507
	c0.004,0.276,0.231,0.497,0.507,0.493l4-0.056l0.056,3.999c0.004,0.276,0.231,0.497,0.507,0.493
	c0.276-0.004,0.497-0.231,0.493-0.507L110.633,212.127z M103.414,219.761l7.077-7.279l-0.717-0.697l-7.077,7.279L103.414,219.761z"
	/>
<path class="st2" d="M336.172,201.473c-0.008-0.552-0.462-0.994-1.014-0.986l-8.999,0.127c-0.552,0.008-0.994,0.462-0.986,1.014
	c0.008,0.552,0.462,0.993,1.014,0.986l7.999-0.113l0.113,7.999c0.008,0.552,0.462,0.994,1.014,0.986
	c0.552-0.008,0.994-0.462,0.986-1.014L336.172,201.473z M313.102,225.622l22.787-23.438l-1.434-1.394l-22.787,23.438
	L313.102,225.622z"/>
<path class="st2" d="M95.747,188.248c-0.22-0.167-0.533-0.125-0.701,0.095l-2.727,3.58c-0.167,0.219-0.125,0.533,0.095,0.7
	c0.22,0.168,0.533,0.125,0.701-0.094l2.424-3.182l3.182,2.424c0.22,0.167,0.533,0.125,0.701-0.095
	c0.167-0.22,0.125-0.533-0.095-0.701L95.747,188.248z M100.074,219.163l-4.135-30.584l-0.991,0.134l4.135,30.584L100.074,219.163z"
	/>
<path class="st2" d="M288.481,125.062c-0.44-0.335-1.067-0.25-1.402,0.19l-5.454,7.159c-0.335,0.439-0.25,1.067,0.19,1.401
	c0.439,0.335,1.066,0.25,1.401-0.189l4.848-6.364l6.364,4.848c0.439,0.335,1.067,0.25,1.401-0.189
	c0.335-0.44,0.25-1.067-0.189-1.402L288.481,125.062z M302.179,224.203l-13.313-98.479l-1.982,0.268l13.313,98.479L302.179,224.203z
	"/>
<path class="st2" d="M83.147,209.022c0.111,0.252,0.406,0.367,0.659,0.256l4.119-1.813c0.253-0.111,0.368-0.406,0.256-0.659
	c-0.111-0.252-0.406-0.367-0.659-0.256l-3.661,1.611L82.25,204.5c-0.111-0.253-0.406-0.367-0.659-0.256
	c-0.253,0.111-0.367,0.406-0.256,0.659L83.147,209.022z M92.137,185.497l-8.998,23.142l0.932,0.363l8.998-23.142L92.137,185.497z"/>
<path class="st3" d="M278.726,116.303l-23.565,58.794"/>
<path class="st2" d="M67.928,194.5c-0.093,0.26,0.043,0.546,0.303,0.639l4.238,1.514c0.26,0.093,0.546-0.043,0.639-0.303
	c0.093-0.26-0.043-0.546-0.303-0.639l-3.767-1.346l1.346-3.767c0.093-0.26-0.043-0.546-0.303-0.639
	c-0.26-0.093-0.546,0.043-0.639,0.303L67.928,194.5z M92.935,182.496l-24.75,11.72l0.428,0.904l24.75-11.721L92.935,182.496z"/>
<path class="st3" d="M280.485,107.509l-31.475,14.6"/>
<path class="st2" d="M82.238,177.027c-0.259,0.097-0.389,0.385-0.292,0.644l1.582,4.213c0.097,0.258,0.385,0.389,0.644,0.292
	c0.258-0.097,0.389-0.385,0.292-0.644l-1.406-3.744l3.745-1.406c0.259-0.098,0.389-0.386,0.292-0.644
	c-0.097-0.259-0.385-0.39-0.644-0.293L82.238,177.027z M92.437,181.497l-9.816-4.457l-0.413,0.911l9.816,4.456L92.437,181.497z"/>
<path class="st3" d="M286.769,107.713l-31.608-14.351"/>
<path class="st2" d="M64.099,165.185c-0.274,0.031-0.472,0.278-0.442,0.553l0.496,4.472c0.03,0.274,0.278,0.472,0.552,0.442
	c0.274-0.031,0.472-0.278,0.442-0.552l-0.441-3.976l3.976-0.441c0.274-0.031,0.472-0.278,0.442-0.552
	c-0.031-0.275-0.278-0.472-0.552-0.442L64.099,165.185z M74.391,173.233l-9.924-7.941l-0.625,0.781l9.924,7.941L74.391,173.233z"/>
<path class="st2" d="M60.235,167.148c-0.214-0.174-0.529-0.142-0.703,0.073l-2.839,3.491c-0.174,0.214-0.142,0.529,0.072,0.703
	c0.214,0.175,0.529,0.142,0.703-0.072l2.524-3.104l3.103,2.524c0.214,0.174,0.529,0.142,0.703-0.073
	c0.174-0.214,0.142-0.529-0.073-0.703L60.235,167.148z M63.181,194.301l-2.764-26.816l-0.995,0.102l2.764,26.817L63.181,194.301z"/>
<path class="st2" d="M43.572,192.719c0.095,0.26,0.382,0.393,0.641,0.299l4.227-1.545c0.259-0.095,0.393-0.382,0.298-0.641
	c-0.095-0.26-0.382-0.393-0.641-0.298l-3.757,1.373l-1.373-3.757c-0.095-0.26-0.382-0.393-0.641-0.298
	c-0.259,0.094-0.393,0.381-0.298,0.641L43.572,192.719z M56.688,164.15l-13.1,28.187l0.907,0.422l13.1-28.187L56.688,164.15z"/>
<circle class="st4" cx="41.982" cy="198.567" r="4.896"/>
<circle class="st5" cx="58.605" cy="161.279" r="4.896"/>
<circle class="st0" cx="63.501" cy="197.444" r="4.896"/>
<circle class="st4" cx="76.53" cy="174.982" r="4.896"/>
<circle class="st0" cx="93.826" cy="182.394" r="4.896"/>
<circle class="st0" cx="282.664" cy="105.728" r="15.766"/>
<circle class="st5" cx="81.426" cy="214.516" r="4.896"/>
<circle class="st6" cx="105.236" cy="185.679" r="4.896"/>
<circle class="st6" cx="319.406" cy="116.304" r="15.766"/>
<circle class="st6" cx="100.34" cy="222.068" r="4.896"/>
<path class="st6" d="M319.406,233.476c0-8.708-7.059-15.766-15.766-15.766c-6.062,0-11.325,3.421-13.964,8.437l5.294,4.412
	l12.993,9.066l7.638,4.123C317.973,240.988,319.406,237.4,319.406,233.476z"/>
<circle class="st0" cx="113.817" cy="207.237" r="4.896"/>
<circle class="st0" cx="347.037" cy="185.721" r="15.766"/>
<circle class="st5" cx="120.556" cy="171.072" r="4.896"/>
<circle class="st5" cx="368.735" cy="69.271" r="15.766"/>
<circle class="st4" cx="154.699" cy="151.486" r="4.896"/>
<circle class="st6" cx="139.649" cy="180.782" r="4.896"/>
<circle class="st4" cx="137.852" cy="215.824" r="4.896"/>
<circle class="st7" cx="160.5" cy="207.237" r="4.896"/>
<circle class="st5" cx="173.759" cy="183.298" r="4.896"/>
<circle class="st8" cx="121.47" cy="191.164" r="37.947"/>
<path class="st9" d="M114.549,152.057L287.947,40.912"/>
<path class="st9" d="M128.669,230.09l201.603,22.445"/>
<path class="st2" d="M427.155,193.975c0.384,0.398,1.017,0.409,1.414,0.025l6.476-6.25c0.397-0.384,0.408-1.017,0.025-1.414
	c-0.384-0.398-1.017-0.409-1.414-0.025l-5.756,5.556l-5.556-5.756c-0.384-0.397-1.017-0.408-1.414-0.025
	c-0.398,0.384-0.409,1.017-0.025,1.414L427.155,193.975z M428.354,109.465l-1.479,83.798l2,0.036l1.479-83.798L428.354,109.465z"/>
<circle class="st6" cx="430.214" cy="100.536" r="15.766"/>
<circle class="st4" cx="424.428" cy="213.37" r="15.766"/>
<circle class="st10" cx="371.678" cy="133.967" r="123.299"/>
</svg>
